<?xml version="1.0" encoding="utf-8"?>
<svg version="1.2" baseProfile="tiny-ps" viewBox="0 0 1000 1000" width="1000px" height="1000px" xmlns="http://www.w3.org/2000/svg">
  <title>Guitard Inc.</title>
  <desc>Guitard Inc. logo</desc>
  <rect width="1000" height="1000" fill="#ffffff"/>
  <g fill="#000000" stroke-width="0">
    <circle cx="813.63" cy="413.92" r="17.139"/>
    <circle cx="749.58" cy="423.95" r="17.139"/>
    <circle cx="686.9"  cy="409.8"  r="17.139"/>
    <path d="m468.15 219.49c-39.316 5.1629-83.65 30.811-116.23 52.095-96.304 62.907-168.04 163.92-197.32 275.66-21.336 81.4 4.4226 190.67 90.974 220.9 67.932 23.728 154.71 15.56 207.99-34.737 49.955-45.599 61.021-104.19 58.481-128.58-4.2102-59.109-30.481-67.673-18.491-70.951 230.93-71.476 291.04 41.564 374.95-47.255 10.524-13.608-2.6878-31.739-5.9553-35.675-9.4872-11.421-24.055-4.814-35.572-0.66925-29.52 10.623-61.561 17.621-86.564 16.491-20.465-0.86623-50.577-8.1668-74.936-15.928-11.302-3.6008-16.78-6.568-26.189-8.4403-11.573 0.66928-17.538 3.1307-22.691 10.3-5.5376 7.7055-19.444 14.448-27.63 18.8-9.8089 5.2146-39.409 10.923-50.183 13.184-28.61 6.0066-42.427 5.979-72.049 10.807-12.381 2.0179-68.509-0.90048-39.315 36.174 24.913 45.456 32.002 69.99 14.63 115.06-40.114 93.068-142.51 87.799-195.19 47.496-83.654-65.529-27.06-229.72 94.554-346.88 24.791-26.203 118.96-102.23 132.75-81.063 12.744 17.697-15.968 32.629-24.372 47.995-3.6745 6.7184-0.15424 20.564 3.4557 28.556 6.991 15.48 25.285 16.141 52.526-13.427 16.651-20.984 24.087-51.534 16.43-77.405-6.0956-20.595-31.11-35.523-54.061-32.51"/>
  </g>
</svg>
