<?xml version="1.0" encoding="utf-8"?>
<svg xmlns="http://www.w3.org/2000/svg" version="1.2" baseProfile="tiny-ps" viewBox="0 0 1000 1000">
  <title>Guitard Inc.</title>
  <desc>Guitard Inc. logo</desc>
  <rect width="1000" height="1000" fill="#fff"/>
  <g fill="#000">
    <circle cx="813.63" cy="413.92" r="17.14"/>
    <circle cx="749.58" cy="423.95" r="17.14"/>
    <circle cx="686.9" cy="409.8" r="17.14"/>
    <path d="M468.15 219.49c-39.32 5.16-83.65 30.81-116.23 52.1-96.3 62.91-168.04 163.92-197.32 275.66-21.34 81.4 4.42 190.67 90.97 220.9 67.93 23.73 154.71 15.56 207.99-34.74 49.96-45.6 61.02-104.19 58.48-128.58-4.21-59.11-30.48-67.67-18.49-70.95 230.93-71.48 291.04 41.56 374.95-47.26 10.52-13.61-2.69-31.74-5.96-35.68-9.49-11.42-24.06-4.81-35.57-.67-29.52 10.62-61.56 17.62-86.56 16.49-20.47-.87-50.58-8.17-74.94-15.93-11.3-3.6-16.78-6.57-26.19-8.44-11.57.67-17.54 3.13-22.69 10.3-5.54 7.71-19.44 14.45-27.63 18.8-9.81 5.21-39.41 10.92-50.18 13.18-28.61 6.01-42.43 5.98-72.05 10.81-12.38 2.02-68.51-.9-39.32 36.17 24.91 45.46 32 69.99 14.63 115.06-40.11 93.07-142.51 87.8-195.19 47.5-83.65-65.53-27.06-229.72 94.55-346.88 24.79-26.2 118.96-102.23 132.75-81.06 12.74 17.7-15.97 32.63-24.37 48-3.67 6.72-.15 20.56 3.46 28.56 6.99 15.48 25.29 16.14 52.53-13.43 16.65-20.98 24.09-51.53 16.43-77.41-6.1-20.6-31.11-35.52-54.06-32.51"/>
  </g>
</svg>
