<svg xmlns="http://www.w3.org/2000/svg" role="img" aria-labelledby="logo-title logo-desc" viewBox="133 115 773 773">
  <title id="logo-title">Guitard Inc.</title>
  <desc id="logo-desc">Guitard Inc. logo</desc>
  <style>@media(prefers-color-scheme:dark){g{fill:#fff}}</style>
  <g fill="#000">
    <circle cx="823.2" cy="415.9" r="17.1"/>
    <circle cx="759.2" cy="425.9" r="17.1"/>
    <circle cx="696.5" cy="411.8" r="17.1"/>
    <path d="M477.8 221.5c-39.3 5.2-83.7 30.8-116.2 52.1-96.3 62.9-168 163.9-197.3 275.7-21.3 81.4 4.4 190.7 91 220.9 67.9 23.7 154.7 15.6 208-34.7 50-45.6 61-104.2 58.5-128.6-4.2-59.1-30.5-67.7-18.5-71 230.9-71.5 291 41.6 374.9-47.3 10.5-13.6-2.7-31.7-6-35.7-9.5-11.4-24.1-4.8-35.6-.7-29.5 10.6-61.6 17.6-86.6 16.5-20.5-.9-50.6-8.2-74.9-15.9-11.3-3.6-16.8-6.6-26.2-8.4-11.6.7-17.5 3.1-22.7 10.3-5.5 7.7-19.4 14.4-27.6 18.8-9.8 5.2-39.4 10.9-50.2 13.2-28.6 6-42.4 6-72 10.8-12.4 2-68.5-.9-39.3 36.2 24.9 45.5 32 70 14.6 115.1-40.1 93.1-142.5 87.8-195.2 47.5-83.7-65.5-27.1-229.7 94.5-346.9 24.8-26.2 119-102.2 132.8-81.1 12.7 17.7-16 32.6-24.4 48-3.7 6.7-.1 20.6 3.5 28.6 7 15.5 25.3 16.1 52.5-13.4 16.6-21 24.1-51.5 16.4-77.4-6.1-20.6-31.1-35.5-54.1-32.5z"/>
  </g>
</svg>
